<svg xmlns="http://www.w3.org/2000/svg" viewBox="0 0 960 366" font-family="'Segoe Print', 'Comic Sans MS', cursive" role="img" aria-labelledby="t d">
<title id="t">Comic 2.1 — The excellent model of the lamp</title><desc id="d">Pat shivers in a scarf. The thermostat, next to a glowing lamp, reports 29°C and switches the heating off. Three people in coats huddle at the far end of the office.</desc>
<defs>
<filter id="rough" x="-5%" y="-5%" width="110%" height="110%"><feTurbulence type="fractalNoise" baseFrequency="0.035" numOctaves="2" seed="7"/><feDisplacementMap in="SourceGraphic" scale="1.8"/></filter>
</defs>
<rect width="960" height="366" fill="#fffefb"/>
<g transform="translate(16,16)"><clipPath id="c16_16"><rect width="300" height="290"/></clipPath><rect width="300" height="290" fill="#ffffff"/><g clip-path="url(#c16_16)"><g filter="url(#rough)"><line x1="0" y1="270" x2="390" y2="270" stroke="#1a1a1a" stroke-width="1.5"/><line x1="190" y1="215" x2="330" y2="215" stroke="#1a1a1a" stroke-width="2.5"/><line x1="198" y1="215" x2="198" y2="255" stroke="#1a1a1a" stroke-width="2"/><line x1="322" y1="215" x2="322" y2="255" stroke="#1a1a1a" stroke-width="2"/><path d="M246,165 L216,215 L308,215 L278,165 Z" fill="#ffe27a" opacity="0.45"/><line x1="262" y1="215" x2="262" y2="165" stroke="#1a1a1a" stroke-width="2.5"/><line x1="250" y1="215" x2="274" y2="215" stroke="#1a1a1a" stroke-width="3"/><path d="M246,165 L278,165 L270,149 L254,149 Z" fill="#e4e3df" stroke="#1a1a1a" stroke-width="2"/><g stroke="#e0b400" stroke-width="1.6"><line x1="238" y1="145" x2="230" y2="137"/><line x1="262" y1="141" x2="262" y2="129"/><line x1="286" y1="145" x2="294" y2="137"/></g><rect x="214" y="92" width="36" height="36" rx="6" fill="#ffffff" stroke="#1a1a1a" stroke-width="2"/><path d="M224,106 q2,-3 4,0 M236,106 q2,-3 4,0" stroke="#1a1a1a" fill="none" stroke-width="1.5"/><path d="M226,115 q6,5 12,0" stroke="#1a1a1a" fill="none" stroke-width="1.6"/><g transform="translate(80,270) scale(1.3) translate(-80,-270)"><circle cx="80" cy="208" r="11" fill="#ffffff" stroke="#1a1a1a" stroke-width="2"/><path d="M71,202 l-3,-6 l6,3 l2,-7 l4,6 l3,-7 l2,7 l5,-4 l-1,7" fill="none" stroke="#1a1a1a" stroke-width="1.8" stroke-linejoin="round"/><circle cx="76" cy="207" r="1.4" fill="#1a1a1a"/><circle cx="84" cy="207" r="1.4" fill="#1a1a1a"/><path d="M76,214 q4,-3 8,0" stroke="#1a1a1a" fill="none" stroke-width="1.3" stroke-linecap="round"/><line x1="80" y1="219" x2="80" y2="246" stroke="#1a1a1a" stroke-width="2" stroke-linecap="round"/><line x1="80" y1="228" x2="74" y2="240" stroke="#1a1a1a" stroke-width="2" stroke-linecap="round"/><line x1="80" y1="228" x2="86" y2="240" stroke="#1a1a1a" stroke-width="2" stroke-linecap="round"/><path d="M72,270 L80,246 L88,270" fill="none" stroke="#1a1a1a" stroke-width="2" stroke-linecap="round" stroke-linejoin="round"/><path d="M70,220 q10,6 20,0 M86,222 l4,14" stroke="#eb6834" stroke-width="4" fill="none" stroke-linecap="round"/></g><g stroke="#8ec5e8" stroke-width="1.8"><path d="M44,168 q-6,6 0,12"/><path d="M116,168 q6,6 0,12"/></g>
<path d="M72,63.75 L80.0,99.75 L88,63.75" fill="#ffffff" stroke="#1a1a1a" stroke-width="1.5" stroke-linejoin="round"/>
<rect x="14" y="18" width="170" height="48" rx="14" fill="#ffffff" stroke="#1a1a1a" stroke-width="1.5"/>
<line x1="73" y1="64.2" x2="87" y2="64.2" stroke="#ffffff" stroke-width="3"/>
<text x="99.0" y="39.5" font-size="12.5" text-anchor="middle" font-family="'Segoe Print', 'Comic Sans MS', cursive" fill="#1a1a1a">Why is it freezing</text>
<text x="99.0" y="56.4" font-size="12.5" text-anchor="middle" font-family="'Segoe Print', 'Comic Sans MS', cursive" fill="#1a1a1a">in here?</text></g></g><rect width="300" height="290" fill="none" stroke="#1a1a1a" stroke-width="2.5"/></g>
<g transform="translate(330,16)"><clipPath id="c330_16"><rect width="300" height="290"/></clipPath><rect width="300" height="290" fill="#ffffff"/><g clip-path="url(#c330_16)"><g filter="url(#rough)"><g transform="translate(150,178) scale(3.2) translate(-150,-178)"><rect x="132" y="160" width="36" height="36" rx="6" fill="#ffffff" stroke="#1a1a1a" stroke-width="2"/><path d="M142,174 q2,-3 4,0 M154,174 q2,-3 4,0" stroke="#1a1a1a" fill="none" stroke-width="1.5"/><path d="M144,183 q6,3 12,-2" stroke="#1a1a1a" fill="none" stroke-width="1.6"/></g><text x="150" y="266" font-size="18" text-anchor="middle" font-family="Georgia, serif" fill="#eb6834" font-weight="bold">29°C</text>
<path d="M142,57.75 L150.0,93.75 L158,57.75" fill="#ffffff" stroke="#1a1a1a" stroke-width="1.5" stroke-linejoin="round"/>
<rect x="12" y="12" width="276" height="48" rx="14" fill="#ffffff" stroke="#1a1a1a" stroke-width="1.5"/>
<line x1="143" y1="58.2" x2="157" y2="58.2" stroke="#ffffff" stroke-width="3"/>
<text x="150.0" y="33.5" font-size="12.5" text-anchor="middle" font-family="'Segoe Print', 'Comic Sans MS', cursive" fill="#1a1a1a">Room temperature: 29°C. Heating:</text>
<text x="150.0" y="50.4" font-size="12.5" text-anchor="middle" font-family="'Segoe Print', 'Comic Sans MS', cursive" fill="#1a1a1a">OFF. Everything is fine.</text></g></g><rect width="300" height="290" fill="none" stroke="#1a1a1a" stroke-width="2.5"/></g>
<g transform="translate(644,16)"><clipPath id="c644_16"><rect width="300" height="290"/></clipPath><rect width="300" height="290" fill="#ffffff"/><g clip-path="url(#c644_16)"><g filter="url(#rough)"><line x1="0" y1="270" x2="390" y2="270" stroke="#1a1a1a" stroke-width="1.5"/><line x1="4" y1="215" x2="104" y2="215" stroke="#1a1a1a" stroke-width="2.5"/><line x1="12" y1="215" x2="12" y2="255" stroke="#1a1a1a" stroke-width="2"/><line x1="96" y1="215" x2="96" y2="255" stroke="#1a1a1a" stroke-width="2"/><path d="M24,165 L-6,215 L86,215 L56,165 Z" fill="#ffe27a" opacity="0.45"/><line x1="40" y1="215" x2="40" y2="165" stroke="#1a1a1a" stroke-width="2.5"/><line x1="28" y1="215" x2="52" y2="215" stroke="#1a1a1a" stroke-width="3"/><path d="M24,165 L56,165 L48,149 L32,149 Z" fill="#e4e3df" stroke="#1a1a1a" stroke-width="2"/><g stroke="#e0b400" stroke-width="1.6"><line x1="16" y1="145" x2="8" y2="137"/><line x1="40" y1="141" x2="40" y2="129"/><line x1="64" y1="145" x2="72" y2="137"/></g><rect x="60" y="110" width="36" height="36" rx="6" fill="#ffffff" stroke="#1a1a1a" stroke-width="2"/><path d="M70,124 q2,-3 4,0 M82,124 q2,-3 4,0" stroke="#1a1a1a" fill="none" stroke-width="1.5"/><path d="M72,133 q6,5 12,0" stroke="#1a1a1a" fill="none" stroke-width="1.6"/><path d="M173,220 L197,220 L201,250 L169,250 Z" fill="#9aa6b8" stroke="#1a1a1a" stroke-width="1.5"/><g transform="translate(185,270) scale(1.3) translate(-185,-270)"><circle cx="185" cy="208" r="11" fill="#ffffff" stroke="#1a1a1a" stroke-width="2"/><path d="M175,204 q10,-10 20,0" fill="none" stroke="#1a1a1a" stroke-width="2"/><circle cx="181" cy="207" r="1.4" fill="#1a1a1a"/><circle cx="189" cy="207" r="1.4" fill="#1a1a1a"/><path d="M181,214 q4,-3 8,0" stroke="#1a1a1a" fill="none" stroke-width="1.3" stroke-linecap="round"/><line x1="185" y1="219" x2="185" y2="246" stroke="#1a1a1a" stroke-width="2" stroke-linecap="round"/><line x1="185" y1="228" x2="179" y2="240" stroke="#1a1a1a" stroke-width="2" stroke-linecap="round"/><line x1="185" y1="228" x2="191" y2="240" stroke="#1a1a1a" stroke-width="2" stroke-linecap="round"/><path d="M177,270 L185,246 L193,270" fill="none" stroke="#1a1a1a" stroke-width="2" stroke-linecap="round" stroke-linejoin="round"/></g><path d="M213,220 L237,220 L241,250 L209,250 Z" fill="#9aa6b8" stroke="#1a1a1a" stroke-width="1.5"/><g transform="translate(225,270) scale(1.3) translate(-225,-270)"><circle cx="225" cy="208" r="11" fill="#ffffff" stroke="#1a1a1a" stroke-width="2"/><path d="M216,202 l-3,-6 l6,3 l2,-7 l4,6 l3,-7 l2,7 l5,-4 l-1,7" fill="none" stroke="#1a1a1a" stroke-width="1.8" stroke-linejoin="round"/><circle cx="221" cy="207" r="1.4" fill="#1a1a1a"/><circle cx="229" cy="207" r="1.4" fill="#1a1a1a"/><path d="M221,214 q4,-3 8,0" stroke="#1a1a1a" fill="none" stroke-width="1.3" stroke-linecap="round"/><line x1="225" y1="219" x2="225" y2="246" stroke="#1a1a1a" stroke-width="2" stroke-linecap="round"/><line x1="225" y1="228" x2="219" y2="240" stroke="#1a1a1a" stroke-width="2" stroke-linecap="round"/><line x1="225" y1="228" x2="231" y2="240" stroke="#1a1a1a" stroke-width="2" stroke-linecap="round"/><path d="M217,270 L225,246 L233,270" fill="none" stroke="#1a1a1a" stroke-width="2" stroke-linecap="round" stroke-linejoin="round"/></g><path d="M253,220 L277,220 L281,250 L249,250 Z" fill="#9aa6b8" stroke="#1a1a1a" stroke-width="1.5"/><g transform="translate(265,270) scale(1.3) translate(-265,-270)"><circle cx="265" cy="208" r="11" fill="#ffffff" stroke="#1a1a1a" stroke-width="2"/><path d="M253,212 C 251,192 279,192 277,212 L274,212 C 274,200 256,200 256,212 Z" fill="#1a1a1a"/><circle cx="261" cy="207" r="1.4" fill="#1a1a1a"/><circle cx="269" cy="207" r="1.4" fill="#1a1a1a"/><path d="M261,214 q4,-3 8,0" stroke="#1a1a1a" fill="none" stroke-width="1.3" stroke-linecap="round"/><line x1="265" y1="219" x2="265" y2="246" stroke="#1a1a1a" stroke-width="2" stroke-linecap="round"/><path d="M261,221 L265,232 L269,221" fill="none" stroke="#eb6834" stroke-width="1.3"/><rect x="262" y="232" width="6" height="8" fill="#eb6834"/><line x1="265" y1="228" x2="259" y2="240" stroke="#1a1a1a" stroke-width="2" stroke-linecap="round"/><line x1="265" y1="228" x2="271" y2="240" stroke="#1a1a1a" stroke-width="2" stroke-linecap="round"/><path d="M257,270 L265,246 L273,270" fill="none" stroke="#1a1a1a" stroke-width="2" stroke-linecap="round" stroke-linejoin="round"/></g></g></g><rect width="300" height="290" fill="none" stroke="#1a1a1a" stroke-width="2.5"/></g>
<text x="480.0" y="330" font-size="13" text-anchor="middle" font-family="Georgia, serif" fill="#1a1a1a" font-style="italic">Every good regulator must be a model of the system. This one is an excellent model of the lamp.</text>
<text x="944" y="358" font-size="9" text-anchor="end" font-family="Georgia, serif" fill="#8a8984">Comic 2.1</text>
</svg>